<?xml version="1.0"?>
<svg xmlns="http://www.w3.org/2000/svg" xmlns:xlink="http://www.w3.org/1999/xlink" xmlns:svgjs="http://svgjs.com/svgjs" version="1.1" width="512" height="512" x="0" y="0" viewBox="0 0 511.996 511.996" style="enable-background:new 0 0 512 512" xml:space="preserve"><g><g xmlns="http://www.w3.org/2000/svg"><path d="m511.996 419.916c0-9.292-3.617-18.026-10.185-24.593-5.69-5.69-13.192-9.181-21.073-9.997v-17.58c0-4.142-3.357-7.5-7.5-7.5s-7.5 3.358-7.5 7.5v25.18c0 2.179.948 4.251 2.597 5.675 1.65 1.425 3.837 2.062 5.993 1.745 6.261-.919 12.41 1.117 16.877 5.583 3.733 3.734 5.791 8.702 5.791 13.987s-2.058 10.252-5.795 13.99l-8.569 8.58c-2.926 2.929-2.924 7.675.003 10.603l6.939 6.94c4.25 4.25 6.719 9.734 6.95 15.443.222 5.479-1.667 10.508-5.32 14.161-3.657 3.657-8.686 5.544-14.164 5.327-5.704-.231-11.187-2.701-15.442-6.961l-6.95-6.94c-2.931-2.925-7.675-2.923-10.604.004l-8.569 8.57c-3.738 3.739-8.707 5.798-13.99 5.798-5.281 0-10.246-2.058-13.983-5.799-4.541-4.541-6.598-11.033-5.502-17.368.377-2.18-.229-4.416-1.653-6.108-1.425-1.693-3.524-2.67-5.737-2.67h-277.222c-2.213 0-4.312.977-5.737 2.67-1.425 1.692-2.03 3.928-1.653 6.108 1.096 6.334-.961 12.827-5.505 17.371-3.734 3.738-8.699 5.796-13.98 5.796-5.283 0-10.252-2.059-13.99-5.798l-8.569-8.57c-2.928-2.928-7.674-2.93-10.604-.004l-6.956 6.946c-4.25 4.253-9.732 6.723-15.437 6.955-5.459.218-10.507-1.669-14.165-5.327-3.652-3.652-5.541-8.681-5.319-14.161.231-5.708 2.7-11.193 6.95-15.443l6.939-6.94c2.927-2.928 2.929-7.674.003-10.603l-8.573-8.583c-3.734-3.735-5.792-8.702-5.792-13.987s2.058-10.252 5.792-13.987c4.467-4.467 10.618-6.501 16.876-5.583 2.156.316 4.343-.32 5.993-1.745 1.648-1.424 2.597-3.496 2.597-5.675v-192.67c0-2.179-.948-4.251-2.598-5.676-1.648-1.424-3.836-2.06-5.992-1.745-6.261.918-12.409-1.116-16.877-5.583-3.733-3.734-5.791-8.701-5.791-13.986s2.058-10.252 5.795-13.99l8.569-8.58c2.926-2.929 2.924-7.676-.003-10.603l-6.938-6.938c-8.608-8.616-9.341-21.897-1.632-29.605 3.657-3.658 8.706-5.547 14.164-5.327 5.705.231 11.187 2.701 15.442 6.961l6.95 6.94c2.932 2.925 7.676 2.924 10.604-.004l8.569-8.57c3.738-3.739 8.707-5.798 13.99-5.798 5.281 0 10.246 2.058 13.987 5.802 4.54 4.532 6.595 11.024 5.498 17.364-.377 2.18.229 4.416 1.653 6.109 1.425 1.693 3.524 2.67 5.737 2.67h277.221c2.213 0 4.312-.977 5.737-2.67s2.03-3.928 1.653-6.109c-1.097-6.34.958-12.832 5.505-17.371 3.734-3.738 8.699-5.796 13.98-5.796 5.283 0 10.252 2.059 13.99 5.798l8.569 8.57c2.929 2.928 7.675 2.929 10.604.004l6.956-6.946c4.25-4.253 9.731-6.723 15.437-6.955 5.459-.222 10.506 1.67 14.165 5.327 7.708 7.708 6.976 20.989-1.631 29.604l-6.939 6.94c-2.927 2.928-2.929 7.674-.003 10.603l8.573 8.583c3.733 3.734 5.791 8.702 5.791 13.987s-2.058 10.252-5.792 13.987c-4.466 4.467-10.619 6.5-16.876 5.583-2.156-.315-4.343.32-5.992 1.745s-2.598 3.497-2.598 5.676v137.51c0 4.142 3.357 7.5 7.5 7.5s7.5-3.358 7.5-7.5v-129.91c7.88-.816 15.383-4.307 21.072-9.997 6.568-6.567 10.186-15.301 10.186-24.593s-3.617-18.026-10.182-24.59l-3.272-3.277 1.642-1.642c14.452-14.465 15.183-37.26 1.628-50.814-6.655-6.654-15.67-10.103-25.379-9.708-9.483.384-18.518 4.412-25.435 11.334l-1.646 1.644-3.27-3.271c-6.572-6.572-15.309-10.191-24.598-10.191-9.291 0-18.024 3.62-24.585 10.187-5.889 5.879-9.403 13.628-10.073 21.758h-58.686l-42.644-51.397c5.268-6.514 8.433-14.797 8.433-23.808 0-20.913-17.015-37.927-37.928-37.927s-37.928 17.014-37.928 37.928c0 9.011 3.164 17.294 8.433 23.808l-42.648 51.395h-58.685c-.669-8.129-4.183-15.876-10.066-21.751-6.567-6.574-15.301-10.194-24.592-10.194-9.289 0-18.025 3.619-24.598 10.192l-3.27 3.27-1.641-1.638c-6.923-6.928-15.957-10.956-25.44-11.34-9.691-.395-18.725 3.053-25.378 9.708-13.556 13.554-12.825 36.349 1.629 50.816l1.64 1.64-3.269 3.273c-6.568 6.567-10.185 15.302-10.185 24.594s3.617 18.026 10.185 24.593c5.691 5.691 13.192 9.181 21.073 9.997v177.47c-7.88.816-15.383 4.307-21.072 9.997-6.569 6.566-10.186 15.301-10.186 24.593s3.617 18.026 10.182 24.59l3.272 3.277-1.64 1.64c-6.922 6.922-10.945 15.958-11.33 25.442-.394 9.714 3.051 18.726 9.7 25.375 6.654 6.654 15.649 10.095 25.379 9.708 9.483-.385 18.519-4.412 25.435-11.334l1.646-1.644 3.27 3.27c6.572 6.572 15.309 10.192 24.598 10.192 9.291 0 18.024-3.621 24.589-10.191 5.885-5.884 9.397-13.63 10.067-21.753h261.66c.67 8.123 4.182 15.869 10.064 21.75 6.567 6.574 15.301 10.194 24.592 10.194 9.289 0 18.025-3.62 24.598-10.192l3.27-3.27 1.641 1.638c6.922 6.929 15.957 10.956 25.44 11.341 9.707.396 18.726-3.054 25.378-9.708 6.65-6.649 10.095-15.661 9.701-25.375-.385-9.484-4.408-18.52-11.33-25.442l-1.64-1.64 3.269-3.274c6.568-6.568 10.185-15.302 10.185-24.594zm-255.998-403.351c12.643 0 22.928 10.285 22.928 22.927s-10.285 22.928-22.928 22.928-22.928-10.285-22.928-22.927 10.285-22.928 22.928-22.928zm-17.96 56.324c5.35 2.888 11.466 4.531 17.96 4.531s12.611-1.643 17.96-4.531l34.691 41.807h-105.302z" fill="#ffffff" data-original="#000000" style=""/><path d="m360.288 284.447c26.872 0 48.734-21.862 48.734-48.735s-21.862-48.735-48.734-48.735c-26.873 0-48.735 21.863-48.735 48.735s21.862 48.735 48.735 48.735zm0-82.47c18.602 0 33.734 15.134 33.734 33.735s-15.133 33.735-33.734 33.735-33.735-15.133-33.735-33.735 15.134-33.735 33.735-33.735z" fill="#ffffff" data-original="#000000" style=""/><path d="m79.268 155.209c-4.143 0-7.5 3.358-7.5 7.5v267.76c0 4.142 3.357 7.5 7.5 7.5h353.46c4.143 0 7.5-3.358 7.5-7.5v-267.76c0-4.142-3.357-7.5-7.5-7.5zm7.5 178.257c22.41-29.701 57.722-47.37 94.961-47.37 12.368 0 24.56 1.892 36.236 5.624 3.941 1.26 8.166-.915 9.427-4.861 1.262-3.945-.915-8.166-4.86-9.427-13.154-4.204-26.883-6.336-40.803-6.336-35.798 0-70.014 14.499-94.961 39.543v-140.43h338.46v171.701c-23.69-19.183-52.933-29.582-83.979-29.582-18.875 0-36.94 3.95-53.353 11.102-10.078-13.133-22.333-24.154-36.51-32.806-3.534-2.158-8.15-1.041-10.31 2.495-2.157 3.536-1.04 8.151 2.495 10.309 11.778 7.188 22.06 16.22 30.669 26.904-33.391 19.348-57.871 52.759-64.839 92.637h-122.633zm137.889 89.502c10.889-55.086 59.582-95.64 116.591-95.64 31.837 0 61.542 12.312 83.979 34.736v60.904z" fill="#ffffff" data-original="#000000" style=""/><path d="m206.518 208.766c0-4.142-3.357-7.5-7.5-7.5-5.329 0-10.21 1.951-13.967 5.177-3.757-3.226-8.638-5.177-13.967-5.177-4.143 0-7.5 3.358-7.5 7.5s3.357 7.5 7.5 7.5c3.565 0 6.467 2.901 6.467 6.467 0 4.142 3.357 7.5 7.5 7.5s7.5-3.358 7.5-7.5c0-3.566 2.901-6.467 6.467-6.467 4.142 0 7.5-3.358 7.5-7.5z" fill="#ffffff" data-original="#000000" style=""/><path d="m233.121 243.35c0-3.566 2.901-6.467 6.467-6.467 4.143 0 7.5-3.358 7.5-7.5s-3.357-7.5-7.5-7.5c-5.329 0-10.21 1.951-13.967 5.177-3.757-3.226-8.638-5.177-13.967-5.177-4.143 0-7.5 3.358-7.5 7.5s3.357 7.5 7.5 7.5c3.565 0 6.467 2.901 6.467 6.467 0 4.142 3.357 7.5 7.5 7.5s7.5-3.358 7.5-7.5z" fill="#ffffff" data-original="#000000" style=""/></g></g></svg>
