<?xml version="1.0"?>
<svg xmlns="http://www.w3.org/2000/svg" xmlns:xlink="http://www.w3.org/1999/xlink" xmlns:svgjs="http://svgjs.com/svgjs" version="1.1" width="512" height="512" x="0" y="0" viewBox="0 0 512 512" style="enable-background:new 0 0 512 512" xml:space="preserve"><g>
<g xmlns="http://www.w3.org/2000/svg">
	<g>
		<path d="M416.431,192.844c10.087-15.941,15.407-34.169,15.407-53.078c0-54.413-43.821-98.784-98.027-99.672    C315.824,14.91,287.045,0,256,0c-36.524,0-69.843,20.916-85.873,53.587c-57.869,16.737-97.982,69.799-97.982,130.268    c0,32.153,11.474,63.193,32.376,87.777c-0.209,2.886-0.312,5.663-0.312,8.416c0,66.017,53.709,119.726,119.726,119.726    c4.601,0,9.209-0.27,13.771-0.797L232.832,497h-8.896c-4.142,0-7.5,3.358-7.5,7.5c0,4.142,3.358,7.5,7.5,7.5h80.161    c4.142,0,7.5-3.358,7.5-7.5c0-4.142-3.358-7.5-7.5-7.5h-8.894L289.4,379.738c9.983,2.645,20.282,4.004,30.729,4.004    c66.017,0,119.726-53.708,119.726-119.726C439.855,237.996,431.638,213.314,416.431,192.844z M247.85,497l6.93-139.34    c6.356-0.669,12.499-2.275,18.274-4.751L280.184,497H247.85z M320.129,368.742c-10.771,0-21.356-1.643-31.513-4.845l-0.978-19.756    c2.011-1.611,3.949-3.338,5.783-5.21c2.899-2.958,2.851-7.707-0.107-10.606c-2.959-2.898-7.708-2.851-10.606,0.107    c-9.22,9.41-21.552,14.591-34.724,14.591c-7.302,0-14.318-1.577-20.854-4.686c-3.743-1.78-8.215-0.189-9.995,3.551    c-1.779,3.74-0.189,8.215,3.551,9.995c6.078,2.891,12.473,4.75,19.084,5.598l-1.307,26.271c-4.796,0.67-9.665,1.021-14.528,1.021    c-57.746,0-104.726-46.98-104.726-104.726c0-3.284,0.169-6.627,0.518-10.222c0.202-2.083-0.475-4.155-1.868-5.717    c-19.806-22.204-30.714-50.706-30.714-80.254c0-49.882,30.698-94.087,76.22-112.113c-1.294,4.996-2.189,10.098-2.653,15.248    c-0.372,4.125,2.671,7.771,6.797,8.143c0.229,0.021,0.456,0.031,0.682,0.031c3.838,0,7.11-2.931,7.461-6.828    c0.771-8.551,2.943-16.947,6.356-24.809c0.104-0.189,0.208-0.378,0.297-0.577C195.266,33.821,224.193,15,256,15    c27.366,0,52.649,13.751,67.631,36.783c1.419,2.181,3.856,3.475,6.468,3.409c0.453-0.011,0.901-0.04,1.349-0.072    c0.233-0.017,0.467-0.04,0.705-0.04c46.696,0,84.686,37.99,84.686,84.686c0,14.465-3.665,28.468-10.66,41.007    c-0.75-0.774-1.51-1.542-2.284-2.299c-2.959-2.898-7.708-2.849-10.606,0.111c-2.898,2.959-2.849,7.708,0.111,10.606    c20.284,19.865,31.455,46.439,31.455,74.826C424.855,321.762,377.875,368.742,320.129,368.742z" fill="#ffffff" data-original="#000000" style=""/>
	</g>
</g>
<g xmlns="http://www.w3.org/2000/svg">
	<g>
		<path d="M223.936,280.564c-35.646,0-64.645-29-64.645-64.645c0-4.142-3.358-7.5-7.5-7.5c-4.142,0-7.5,3.358-7.5,7.5    c0,43.917,35.729,79.645,79.645,79.645c4.142,0,7.5-3.358,7.5-7.5C231.436,283.922,228.078,280.564,223.936,280.564z" fill="#ffffff" data-original="#000000" style=""/>
	</g>
</g>
<g xmlns="http://www.w3.org/2000/svg">
	<g>
		<path d="M328.145,80.161c-4.142,0-7.5,3.358-7.5,7.5c0,4.142,3.358,7.5,7.5,7.5c22.385,0,40.597,18.212,40.597,40.597    c0,4.142,3.358,7.5,7.5,7.5c4.142,0,7.5-3.358,7.5-7.5C383.742,105.102,358.801,80.161,328.145,80.161z" fill="#ffffff" data-original="#000000" style=""/>
	</g>
</g>
<g xmlns="http://www.w3.org/2000/svg">
</g>
<g xmlns="http://www.w3.org/2000/svg">
</g>
<g xmlns="http://www.w3.org/2000/svg">
</g>
<g xmlns="http://www.w3.org/2000/svg">
</g>
<g xmlns="http://www.w3.org/2000/svg">
</g>
<g xmlns="http://www.w3.org/2000/svg">
</g>
<g xmlns="http://www.w3.org/2000/svg">
</g>
<g xmlns="http://www.w3.org/2000/svg">
</g>
<g xmlns="http://www.w3.org/2000/svg">
</g>
<g xmlns="http://www.w3.org/2000/svg">
</g>
<g xmlns="http://www.w3.org/2000/svg">
</g>
<g xmlns="http://www.w3.org/2000/svg">
</g>
<g xmlns="http://www.w3.org/2000/svg">
</g>
<g xmlns="http://www.w3.org/2000/svg">
</g>
<g xmlns="http://www.w3.org/2000/svg">
</g>
</g></svg>
